<svg width="24" height="24" viewBox="0 0 24 24" fill="none" xmlns="http://www.w3.org/2000/svg">
<path d="M0 12C0 5.37258 5.37258 0 12 0C18.6274 0 24 5.37258 24 12C24 18.6274 18.6274 24 12 24C5.37258 24 0 18.6274 0 12Z" fill="#3162E1"/>
<path d="M12.0004 16.5218C14.4977 16.5218 16.5222 14.4973 16.5222 12C16.5222 9.50265 14.4977 7.47815 12.0004 7.47815C9.50302 7.47815 7.47852 9.50265 7.47852 12C7.47852 14.4973 9.50302 16.5218 12.0004 16.5218Z" fill="white"/>
<path d="M12.0002 5.73899C12.4805 5.73899 12.8698 5.34966 12.8698 4.8694C12.8698 4.38914 12.4805 3.99982 12.0002 3.99982C11.5199 3.99982 11.1306 4.38914 11.1306 4.8694C11.1306 5.34966 11.5199 5.73899 12.0002 5.73899Z" fill="white"/>
<path d="M17.0432 7.826C17.5234 7.826 17.9128 7.43666 17.9128 6.95641C17.9128 6.47615 17.5234 6.08682 17.0432 6.08682C16.5629 6.08682 16.1736 6.47615 16.1736 6.95641C16.1736 7.43666 16.5629 7.826 17.0432 7.826Z" fill="white"/>
<path d="M19.1303 12.8696C19.6106 12.8696 19.9999 12.4802 19.9999 12C19.9999 11.5197 19.6106 11.1304 19.1303 11.1304C18.6501 11.1304 18.2607 11.5197 18.2607 12C18.2607 12.4802 18.6501 12.8696 19.1303 12.8696Z" fill="white"/>
<path d="M17.0432 17.9132C17.5234 17.9132 17.9128 17.5239 17.9128 17.0436C17.9128 16.5633 17.5234 16.174 17.0432 16.174C16.5629 16.174 16.1736 16.5633 16.1736 17.0436C16.1736 17.5239 16.5629 17.9132 17.0432 17.9132Z" fill="white"/>
<path d="M12.0002 20.0002C12.4805 20.0002 12.8698 19.6109 12.8698 19.1306C12.8698 18.6503 12.4805 18.261 12.0002 18.261C11.5199 18.261 11.1306 18.6503 11.1306 19.1306C11.1306 19.6109 11.5199 20.0002 12.0002 20.0002Z" fill="white"/>
<path d="M6.9565 17.9132C7.43676 17.9132 7.82609 17.5239 7.82609 17.0436C7.82609 16.5633 7.43676 16.174 6.9565 16.174C6.47624 16.174 6.08691 16.5633 6.08691 17.0436C6.08691 17.5239 6.47624 17.9132 6.9565 17.9132Z" fill="white"/>
<path d="M4.86934 12.8696C5.3496 12.8696 5.73893 12.4802 5.73893 12C5.73893 11.5197 5.3496 11.1304 4.86934 11.1304C4.38908 11.1304 3.99976 11.5197 3.99976 12C3.99976 12.4802 4.38908 12.8696 4.86934 12.8696Z" fill="white"/>
<path d="M6.9565 7.826C7.43676 7.826 7.82609 7.43666 7.82609 6.95641C7.82609 6.47615 7.43676 6.08682 6.9565 6.08682C6.47624 6.08682 6.08691 6.47615 6.08691 6.95641C6.08691 7.43666 6.47624 7.826 6.9565 7.826Z" fill="white"/>
</svg>
