<svg viewBox="0 0 34 34" xmlns="http://www.w3.org/2000/svg" data-name="图层 1"><path fill="none" d="M0 0h34v34H0z"/><path d="M30.47 16.12a8.83 8.83 0 0 0-5-2.32 9 9 0 0 0-2.83-6.06 10.1 10.1 0 0 0-13.83 0A9.07 9.07 0 0 0 6 14.31a1.34 1.34 0 0 0 0 .2 8.45 8.45 0 0 0-3.34 2.62A7.77 7.77 0 0 0 1 21.87a7.86 7.86 0 0 0 2.53 5.75A8.88 8.88 0 0 0 9.64 30h14.72a8.9 8.9 0 0 0 6.11-2.38 7.8 7.8 0 0 0 0-11.5Zm-5.14 11.75H8.67a5.25 5.25 0 0 1-5.4-5.09c0-2.14 1.44-5.89 3.59-6.61a2 2 0 0 0 1.4-2.1v-.67c0-3.45 3.89-6.26 7.49-6.26S23.2 10 23.2 13.4v.35a2 2 0 0 0 .59 1.5 2.18 2.18 0 0 0 1.54.62c3 0 5.41 4.11 5.41 6.91a5.25 5.25 0 0 1-5.41 5.09Z"/><path d="M13.32 22.78a1.93 1.93 0 0 1-1.44.7c-1.09 0-1.73-.91-1.73-2.42s.72-2.38 1.75-2.38a1.89 1.89 0 0 1 1.32.6l.15.13 1.25-1.54-.11-.12a3.73 3.73 0 0 0-2.64-1.13A4 4 0 0 0 9 17.81a4.6 4.6 0 0 0-1.23 3.32A4.53 4.53 0 0 0 9 24.43a4 4 0 0 0 2.85 1.12 3.62 3.62 0 0 0 2.84-1.28l.1-.12-1.28-1.52Z"/><path d="M18.64 16.62a3.74 3.74 0 0 0-2.87 1.17 4.68 4.68 0 0 0-1.1 3.21c0 2.75 1.56 4.52 4 4.52s4-1.77 4-4.52a4.68 4.68 0 0 0-1.1-3.25 3.78 3.78 0 0 0-2.93-1.13Zm0 6.86c-1 0-1.57-.93-1.57-2.44s.59-2.35 1.57-2.35 1.58.88 1.58 2.35-.6 2.44-1.58 2.44ZM25.14 24.21a3.09 3.09 0 0 0 1-1.8 1.45 1.45 0 0 0-1.54-1.48 1.92 1.92 0 0 0-1.51.69l-.12.13.79.79.13-.13a.9.9 0 0 1 .57-.34c.15 0 .36 0 .36.4s-.78 1.21-1.67 2l-.06.06v.83h3.23V24.2h-1.18Z"/></svg>