<svg xmlns="http://www.w3.org/2000/svg" viewBox="0 0 1142 1024" class="icon"><path d="M837.33 974.418a12.466 12.466 0 0 1-9.066-9.066 13.599 13.599 0 0 1 0-14.732l96.324-91.792-307.105-383.031-139.387 172.25a19.265 19.265 0 0 1-31.73 0L3.271 102.965a15.865 15.865 0 0 1 0-19.265L67.866 3.24a11.332 11.332 0 0 1 15.866 0L462.23 475.798l139.388-172.251a19.265 19.265 0 0 1 30.597 0l371.7 460.091 113.322-84.992c6.8-7.933 18.132 0 19.265 7.932v321.838a21.531 21.531 0 0 1 0 14.732 12.466 12.466 0 0 1-9.066 0z"/></svg>
