<svg viewBox="0 0 40 40" xmlns="http://www.w3.org/2000/svg" data-name="图层 1"><path fill="none" d="M0 0h40v40H0z"/><path d="M32.35 8c-5.2-.58-9.11-2-11.62-4.13l-.66-.57-.72.51C15.42 6.61 11.52 8 7.78 8H6.67v15.39c0 4.71 4.2 9 12.85 13.06l.46.22.46-.2c8.56-3.63 12.89-8 12.89-13.08V8.14Zm-1.24 15.39c0 4-3.73 7.66-11.09 10.87C12.63 30.7 8.89 27 8.89 23.39V10.18A22.56 22.56 0 0 0 20 6.1c2.66 2 6.41 3.35 11.16 4Z"/><path d="M14.65 18.57a1.19 1.19 0 0 0-.78-.36 1.3 1.3 0 0 0-.44.06 1.28 1.28 0 0 0-.38.21 1.22 1.22 0 0 0-.27.33 1.19 1.19 0 0 0-.11.41A1 1 0 0 0 13 20l4.32 4.62a2.31 2.31 0 0 0 1.7.72 2.53 2.53 0 0 0 1-.2 2.38 2.38 0 0 0 .78-.58l7-8.13a1 1 0 0 0 .25-.79 1 1 0 0 0-.41-.72 1.18 1.18 0 0 0-1.6.15l-7 8.13Z"/></svg>