<svg viewBox="0 0 60 60" xmlns="http://www.w3.org/2000/svg" data-name="图层 1"><path fill="none" d="M0 0h60v60H0z"/><path d="M51.25 23.17h-8.13a22.63 22.63 0 0 0-7.73 1.35 27.9 27.9 0 0 0-7.72-14.79L22.92 5a1.39 1.39 0 0 0-.48-.32 1.42 1.42 0 0 0-.57-.12 1.39 1.39 0 0 0-.57.12 1.31 1.31 0 0 0-.48.32l-4.76 4.73C4.88 20.85 4.32 39.87 14.89 50.42l5.05 4.69a1.48 1.48 0 0 0 1 .4h9a22.79 22.79 0 0 0 22.79-22.76v-8.13a1.43 1.43 0 0 0-.44-1 1.49 1.49 0 0 0-1-.42ZM16.94 48.29c-9.4-9.41-8.84-26.45 1.19-36.49l3.73-3.73 3.73 3.73a24.9 24.9 0 0 1 7 13.93 22.88 22.88 0 0 0-9.23 8.91v-3l5.39-5.39a1.48 1.48 0 0 0-1-2.52 1.46 1.46 0 0 0-1.05.41l-3.29 3.31V15.12a1.49 1.49 0 0 0-.44-1 1.51 1.51 0 0 0-1.05-.43 1.53 1.53 0 0 0-1.05.43 1.48 1.48 0 0 0-.43 1v6l-1.64-1.63a1.49 1.49 0 0 0-1-.38 1.45 1.45 0 0 0-1 .43 1.47 1.47 0 0 0-.06 2l3.68 3.69v10L17.08 32a1.75 1.75 0 0 0-.48-.32 1.6 1.6 0 0 0-.57-.11 1.56 1.56 0 0 0-.57.11 1.51 1.51 0 0 0-.81.81 1.51 1.51 0 0 0 0 1.13 1.51 1.51 0 0 0 .33.49l5.4 5.39v12Zm32.82-15.53A19.79 19.79 0 0 1 30 52.54h-4.57l4.27-4.27h6.94a1.38 1.38 0 0 0 .57-.11 1.47 1.47 0 0 0 .8-.8 1.42 1.42 0 0 0 .12-.57 1.51 1.51 0 0 0-1.49-1.49h-4l4.93-4.9 8.14-8.17a1.52 1.52 0 0 0 .42-1 1.49 1.49 0 0 0-1.47-1.47 1.48 1.48 0 0 0-1 .41L38 35.74v-4a1.6 1.6 0 0 0-.11-.57 1.58 1.58 0 0 0-.33-.48 1.31 1.31 0 0 0-.48-.32 1.39 1.39 0 0 0-1.13 0 1.43 1.43 0 0 0-.49.32 1.75 1.75 0 0 0-.32.48 1.6 1.6 0 0 0-.11.57v6.94l-7 7-4.71 4.71v-4.2a.43.43 0 0 0 0-.16v-.83a19.8 19.8 0 0 1 19.8-19.06h6.64Z"/></svg>