<svg viewBox="0 0 60 60" xmlns="http://www.w3.org/2000/svg" data-name="图层 1"><path fill="none" d="M0 0h60v60H0z"/><path d="M47.06 12.92a24 24 0 0 0-33.92 0 24 24 0 0 0 0 33.92 23.93 23.93 0 0 0 33.92 0 24 24 0 0 0 0-33.92Zm-2.62 31.31a20.35 20.35 0 0 1-28.74 0 20.32 20.32 0 0 1 0-28.69 20.3 20.3 0 0 1 28.39-.32l-2.7 2.7a3.66 3.66 0 0 1 .9.9L45 16.13a20.26 20.26 0 0 1-.54 28.1Z"/><path d="M42.41 22.5a3.35 3.35 0 0 1-.64 1 3.72 3.72 0 0 1-1.61.86A11.53 11.53 0 0 1 38.21 38a11.53 11.53 0 0 1-16.27 0A11.5 11.5 0 0 1 36 20a3.34 3.34 0 0 1 .86-1.49 3.61 3.61 0 0 1 1.08-.71 14.37 14.37 0 0 0-18 1.87 14.39 14.39 0 0 0 0 20.35 14.39 14.39 0 0 0 20.36 0 14.37 14.37 0 0 0 4.23-10.19 14.23 14.23 0 0 0-2.12-7.33Z"/><path d="M39.33 22.64a1.71 1.71 0 0 0 1.77-1.8 1.76 1.76 0 0 0-1.77-1.75 1.84 1.84 0 0 0-1.27.51 1.8 1.8 0 0 0-.52 1.24 1.78 1.78 0 0 0 1.79 1.8ZM36.39 22.92l-5.14 5.13v.37a1.84 1.84 0 0 0-1.17-.42 2 2 0 0 0-1.36.55 1.91 1.91 0 0 0 1.36 3.24 2 2 0 0 0 1.35-.54 2 2 0 0 0 .57-1.39 1.78 1.78 0 0 0-.11-.61l5.44-5.44a3.46 3.46 0 0 1-.94-.89Z"/></svg>