<svg width="14" height="14" viewBox="0 0 14 14" fill="none" xmlns="http://www.w3.org/2000/svg">
<path d="M5.25 1.75H2.33333C2.01117 1.75 1.75 2.01117 1.75 2.33333V5.25C1.75 5.57218 2.01117 5.83333 2.33333 5.83333H5.25C5.57218 5.83333 5.83333 5.57218 5.83333 5.25V2.33333C5.83333 2.01117 5.57218 1.75 5.25 1.75Z" fill="#4F535C" stroke="#4F535C" stroke-linejoin="round"/>
<path d="M5.25 8.1665H2.33333C2.01117 8.1665 1.75 8.42766 1.75 8.74984V11.6665C1.75 11.9887 2.01117 12.2498 2.33333 12.2498H5.25C5.57218 12.2498 5.83333 11.9887 5.83333 11.6665V8.74984C5.83333 8.42766 5.57218 8.1665 5.25 8.1665Z" fill="#4F535C" stroke="#4F535C" stroke-linejoin="round"/>
<path d="M11.6667 8.1665H8.75001C8.42783 8.1665 8.16667 8.42766 8.16667 8.74984V11.6665C8.16667 11.9887 8.42783 12.2498 8.75001 12.2498H11.6667C11.9888 12.2498 12.25 11.9887 12.25 11.6665V8.74984C12.25 8.42766 11.9888 8.1665 11.6667 8.1665Z" fill="#4F535C" stroke="#4F535C" stroke-linejoin="round"/>
<path d="M12.5 4.5C12.5 5.88071 11.3807 6.5 10 6.5C8.61929 6.5 7.5 5.38071 7.5 4C7.5 2.61929 8.5 2 11.5 1C11.5 3 12 3.5 12.5 4.5Z" fill="#818387"/>
</svg>
