<svg viewBox="0 0 60 60" xmlns="http://www.w3.org/2000/svg" data-name="图层 1"><path d="M15.57 17.69a2.11 2.11 0 0 0 1.29 1 2 2 0 0 0 .55.07 2.1 2.1 0 0 0 1.06-.28 2.14 2.14 0 0 0 .78-2.9l-3.66-6.34a2.11 2.11 0 0 0-2.9-.78 2.08 2.08 0 0 0-1 1.29 2.11 2.11 0 0 0 .21 1.61ZM30 14.06a2.12 2.12 0 0 0 2.12-2.12V4.62a2.12 2.12 0 1 0-4.24 0v7.32A2.12 2.12 0 0 0 30 14.06ZM41.53 18.47a2.1 2.1 0 0 0 1.06.28 2.15 2.15 0 0 0 .56-.07 2.09 2.09 0 0 0 1.28-1l3.66-6.33a2.13 2.13 0 0 0-3.68-2.13l-3.66 6.34a2.14 2.14 0 0 0 .78 2.91ZM56.4 22.73a2.11 2.11 0 0 0-2.6-1.5l-7.07 1.89a2.14 2.14 0 0 0-1.5 2.6 2.14 2.14 0 0 0 2.05 1.58 2.16 2.16 0 0 0 .56-.08l7.06-1.89a2.12 2.12 0 0 0 1.5-2.6ZM12.71 27.3a2.14 2.14 0 0 0 2.06-1.58 2.14 2.14 0 0 0-1.51-2.6L6.2 21.23a2.122 2.122 0 1 0-1.1 4.1l7.06 1.89a2.15 2.15 0 0 0 .55.08ZM47.28 52.35a3.66 3.66 0 0 0-1.9-1 .32.32 0 0 1-.26-.3V32.36a15.21 15.21 0 0 0-4.51-10.82A15 15 0 0 0 30 17.12h-.06a15.16 15.16 0 0 0-15.06 15.13V51a.32.32 0 0 1-.26.3 3.76 3.76 0 0 0-3 3.67v.5h36.76V55a3.72 3.72 0 0 0-1.1-2.65Zm-28.16-1.41v-18.6a10.94 10.94 0 0 1 3.13-7.72A10.76 10.76 0 0 1 30 21.38a10.87 10.87 0 0 1 10.88 10.87v18.69a.32.32 0 0 1-.32.31H19.44a.32.32 0 0 1-.32-.31Z"/><path d="m27.19 47.69 8.5-12.33h-3.87l.99-8.8-8.5 12.33h3.87l-.99 8.8z"/><path fill="none" d="M0 0h60v60H0z"/></svg>