<svg xmlns="http://www.w3.org/2000/svg" viewBox="0 0 60 60" xml:space="preserve"><path d="M0 0h60v60H0z" fill="none"/><path d="M56.1 16.6c-.1-.5-.5-.9-.9-1.1-.5-.2-1-.2-1.4 0-.6.3-13.5 6.8-18.2 15.3-4.9 8.9.7 18.2.9 18.6l.3.3h.1c.1.1.3.2.4.2 0 0 .1 0 .1.1.2.1.3.1.5.1.1 0 .3 0 .4-.1.8-.2 11.9-2.9 16.6-11.5 4.8-8.4 1.4-21.3 1.2-21.9zM38.5 32.5c2.8-5 9.1-9.4 13.2-11.9-.9 2.9-4.9 15-13.3 25-1.3-2.8-2.7-8.1.1-13.1zM52 37.2c-2.1 3.8-5.8 6.2-8.9 7.8C49 37 52.4 28.6 54 24.1c.3 4 .2 9.1-2 13.1z"/><path d="M29 24.9c-1.8-2.1-4.8-4.1-8-6.3-5.2-3.4-11-7.4-12.5-11.9-.3-.6-.9-1.1-1.6-1.1-.7 0-1.3.5-1.6 1.1-.2.7-5.4 16.6-1 30.4.2.6 5 13.8 23.6 14.5h.2c.4 0 .8-.2 1.1-.5.1-.1.2-.2.3-.4.4-.9 8.9-15.2-.5-25.8zm-9.9-3.5c3 2.1 5.8 4 7.4 5.7 5.4 6 3.8 13.4 2 17.9-1.3-3.6-4-8.7-9.8-13.9-6.1-5.4-8.4-12.9-9.3-17.3 2.7 2.8 6.3 5.3 9.7 7.6zM7.4 36c-2.1-6.6-1.7-14-.9-19.6 1.2 4.9 3.9 11.9 9.9 17.2 6.7 5.9 8.8 11.6 9.5 14.5C11.4 46.7 7.6 36.4 7.4 36z"/></svg>