<svg viewBox="0 0 40 40" xmlns="http://www.w3.org/2000/svg" data-name="图层 1"><path fill="none" d="M0 0h40v40H0z"/><path d="M20.79 31.76a.93.93 0 0 0-.93-.94H5.21a.94.94 0 0 0 0 1.88h14.65a.93.93 0 0 0 .93-.94Zm10.78 0a.94.94 0 0 0 .94.94h2.27a.94.94 0 0 0 0-1.88h-2.27a1 1 0 0 0-.94.94Zm-1.15 0a4.09 4.09 0 1 0-4.09 4.09 4.09 4.09 0 0 0 4.09-4.09Zm-6.31 0A2.22 2.22 0 1 1 26.32 34a2.22 2.22 0 0 1-2.21-2.24Zm-4.68-11.94a.93.93 0 0 0 .94.93h14.41a.94.94 0 0 0 0-1.87H20.37a1 1 0 0 0-.94.94Zm-11 0a.94.94 0 0 0-.94-.94H5.21a.94.94 0 0 0 0 1.87h2.3a.93.93 0 0 0 .94-.93Zm9.61.06A4.09 4.09 0 1 0 14 24a4.1 4.1 0 0 0 4.09-4.09Zm-6.31 0A2.22 2.22 0 1 1 14 22.1a2.21 2.21 0 0 1-2.21-2.22ZM25.52 8a.94.94 0 0 0 .94.94h8.59a.94.94 0 0 0 0-1.88h-8.59a.94.94 0 0 0-.94.94ZM14.63 8a.94.94 0 0 0-.93-.94H5A.97.97 0 0 0 5 9h8.7a.94.94 0 0 0 .93-1Zm9.44 0A4.09 4.09 0 1 0 20 12.1 4.09 4.09 0 0 0 24.07 8Zm-6.31 0A2.22 2.22 0 1 1 20 10.22 2.22 2.22 0 0 1 17.76 8Z"/></svg>