<svg viewBox="0 0 60 60" xmlns="http://www.w3.org/2000/svg" data-name="图层 1"><path fill="none" d="M0 0h60v60H0z"/><path d="M52.81 7.94a5.23 5.23 0 0 0-3.7-1.53H11a5.22 5.22 0 0 0-5.22 5.22V39.1a5.29 5.29 0 0 0 .4 2 5.22 5.22 0 0 0 1.13 1.69A5.23 5.23 0 0 0 11 44.32h38.11a5.28 5.28 0 0 0 3.7-1.53 5.22 5.22 0 0 0 1.13-1.69 5.29 5.29 0 0 0 .4-2V11.63a5.22 5.22 0 0 0-1.53-3.69Zm-2.89 31.4a.56.56 0 0 1-.15.37.54.54 0 0 1-.38.15H10.72a.51.51 0 0 1-.52-.52V11.4a.5.5 0 0 1 .15-.37.52.52 0 0 1 .37-.16h38.67a.55.55 0 0 1 .38.16.5.5 0 0 1 .15.37Z"/><rect rx="2.22" height="4.46" width="26.48" y="48.78" x="16.82"/><rect rx="1.86" height="15.61" width="4.41" y="19.79" x="14.61"/><path d="M25.64 26.48zM25.64 26.48a2 2 0 0 0-2.2 2.21v4.5a2 2 0 0 0 2.2 2.21 2 2 0 0 0 2.21-2.21v-4.5a2 2 0 0 0-2.21-2.21ZM25.64 35.4zM34.47 15.33a2 2 0 0 0-2.2 2.21v15.65a2 2 0 0 0 2.2 2.21 2 2 0 0 0 2.21-2.21V17.54a2 2 0 0 0-2.21-2.21ZM34.47 35.4zM34.47 15.33zM43.3 35.4zM43.3 24.25a2 2 0 0 0-2.21 2.21v6.73a2 2 0 0 0 2.21 2.21 2 2 0 0 0 2.21-2.21v-6.73a2 2 0 0 0-2.21-2.21ZM43.3 24.25z"/></svg>