<svg id="图层_1" data-name="图层 1" xmlns="http://www.w3.org/2000/svg" viewBox="0 0 14 14"><path d="M9.83,9.78a3.9,3.9,0,0,0-1.3-.95,3.71,3.71,0,0,0-3.06,0,3.9,3.9,0,0,0-1.3.95,4.51,4.51,0,0,0-.87,1.41A4.74,4.74,0,0,0,3,12.86a12.57,12.57,0,0,0,8,0,4.74,4.74,0,0,0-.3-1.67A4.51,4.51,0,0,0,9.83,9.78Z" fill-rule="evenodd"/><path d="M7,.5a5,5,0,0,0-5,5A3.55,3.55,0,0,0,3.62,8.64a5.38,5.38,0,0,1,1.47-.81,5.69,5.69,0,0,1,3.82,0,5.38,5.38,0,0,1,1.47.81A3.55,3.55,0,0,0,12,5.5,5,5,0,0,0,7,.5Z" fill-rule="evenodd"/><rect width="14" height="14" fill="none"/></svg>