<svg width="400" height="300" viewBox="0 0 400 300" fill="none" xmlns="http://www.w3.org/2000/svg">
<mask id="mask0_41_13860" style="mask-type:alpha" maskUnits="userSpaceOnUse" x="34" y="54" width="329" height="230">
<path d="M230.854 75.5259C298.554 110.239 317.887 87.424 348.336 133.675C378.784 179.927 358.038 266.362 294.058 280.533C230.077 294.705 218.607 259.811 131.777 274.948C44.947 290.085 0.904003 158.01 65.83 102.938C130.757 47.8649 163.155 40.8129 230.854 75.5259Z" fill="white"/>
</mask>
<g mask="url(#mask0_41_13860)">
<path d="M230.854 75.5259C298.554 110.239 317.887 87.424 348.336 133.675C378.784 179.927 358.038 266.362 294.058 280.533C230.077 294.705 218.607 259.811 131.777 274.948C44.947 290.085 0.904003 158.01 65.83 102.938C130.757 47.8649 163.155 40.8129 230.854 75.5259Z" fill="#F2F5FF"/>
<mask id="mask1_41_13860" style="mask-type:alpha" maskUnits="userSpaceOnUse" x="25" y="15" width="373" height="373">
<path d="M396.551 16.4769H26.071V386.957H396.551V16.4769Z" fill="white" stroke="white" stroke-width="1.32"/>
</mask>
<g mask="url(#mask1_41_13860)">
<path d="M173.973 16.4769C179.211 84.4999 203.583 125.678 247.09 140.012C290.597 154.346 349.713 133.757 424.439 78.2439" stroke="white" stroke-width="1.32"/>
<path d="M199.718 16.4769C211.313 96.4469 185.271 137.765 121.591 140.429C26.071 144.424 95.081 71.8839 127.668 100.801C160.255 129.718 157.602 192.331 106.757 235.246C72.86 263.856 34.24 278.161 -9.10504 278.161M396.551 236.158C255.389 227.036 143.418 277.303 60.636 386.957" stroke="white" stroke-width="1.32"/>
<path d="M26.071 235.107C118.666 259.927 178.361 310.544 205.156 386.957" stroke="white" stroke-width="1.32"/>
<path d="M396.551 147.319C334.074 209.685 290.462 227.817 265.714 201.717C228.593 162.566 299.499 131.736 309.957 166.726C320.416 201.717 264.501 229.486 190.057 241.837C140.428 250.071 81.702 286.091 13.877 349.898M91.207 16.4769C150.405 45.2279 226.808 58.2189 320.416 55.4499C414.024 52.6799 480.212 41.4379 518.98 21.7239" stroke="white" stroke-width="1.32"/>
<path d="M396.551 187.842C337.41 245.5 312.032 315.403 320.416 397.55M304.781 83.7749C329.935 83.7749 350.326 55.166 350.326 19.875C350.326 -15.4151 329.935 -44.024 304.781 -44.024C279.627 -44.024 259.236 -15.4151 259.236 19.8759C259.236 55.166 279.627 83.7749 304.781 83.7749Z" stroke="white" stroke-width="1.32"/>
<path d="M26.071 157.764C172.142 187.277 286.765 267.206 369.94 397.55" stroke="white" stroke-width="1.32"/>
<path d="M79.729 16.4769C35.082 25.6099 18.575 44.6619 30.207 73.6289C47.656 117.08 111.956 199.245 26.071 213.496" stroke="white" stroke-width="1.32"/>
</g>
</g>
<mask id="mask2_41_13860" style="mask-type:alpha" maskUnits="userSpaceOnUse" x="34" y="16" width="332" height="268">
<path d="M262.373 27.397C330.11 62.132 331.32 60.245 361.786 106.525C369.758 118.636 360.686 160.543 361.786 176.144C364.889 220.162 341.205 270.049 293.941 280.518C229.924 294.699 218.447 259.783 131.569 274.93C44.691 290.076 0.622009 157.919 65.585 102.812C130.548 47.705 194.636 -7.33804 262.373 27.397Z" fill="white"/>
</mask>
<g mask="url(#mask2_41_13860)">
<path fill-rule="evenodd" clip-rule="evenodd" d="M171.073 121.812L330.828 159.06V271.235L215.192 335.715L52.569 291.621V182.035L171.073 121.812Z" fill="url(#paint0_linear_41_13860)"/>
<path d="M171 126V209.5" stroke="#3050A6"/>
<path d="M171 125.5V122L52.4999 182L56.4999 184.5L171 125.5Z" fill="#8CB0FF"/>
<path d="M331 159L326.5 158L210.5 223L215.5 224L331 159Z" fill="#8CB0FF"/>
<path d="M171 125.5V122L330.5 159V162.5L171 125.5Z" fill="#8CB0FF"/>
<path d="M113 195L56.4999 180L52.9999 182L108.5 197V214.5L113 215.5V195Z" fill="#8CB0FF"/>
<path d="M112.5 213L108 215L159 228L163 225.5L112.5 213Z" fill="#8CB0FF"/>
<path fill-rule="evenodd" clip-rule="evenodd" d="M215.08 224.043V336.642L52.569 294.6V182.001L108.578 196.491V214.34L159.495 227.513V209.663L215.08 224.043Z" fill="#678AFF"/>
<path fill-rule="evenodd" clip-rule="evenodd" d="M330.365 159.314V271.992L214.617 337.104V224.426L330.365 159.314ZM298.244 195.344L256.161 218.852V238.648L298.244 215.14V195.344Z" fill="#436FFF"/>
<path fill-rule="evenodd" clip-rule="evenodd" d="M297.31 71.843L266.564 40.503C265.567 39.4873 264.21 38.9067 262.787 38.8876C261.364 38.8685 259.992 39.4124 258.968 40.401C258.462 40.889 258.058 41.4719 257.778 42.1163C257.498 42.7607 257.347 43.454 257.335 44.1566C257.322 44.8592 257.449 45.5574 257.706 46.2111C257.964 46.8649 258.348 47.4616 258.836 47.967L274.225 63.904" fill="white"/>
<mask id="mask3_41_13860" style="mask-type:alpha" maskUnits="userSpaceOnUse" x="27" y="276" width="90" height="37">
<path d="M70.357 283.991L79.371 277.709C80.871 280.475 83.734 282.175 87.959 282.81C98.349 284.37 106.568 283.833 112.614 281.198L115.369 297.023C115.926 300.227 116.036 303.493 115.696 306.728L115.253 310.936C115.244 311.024 115.218 311.109 115.176 311.186C115.134 311.264 115.077 311.332 115.009 311.388C114.94 311.444 114.861 311.485 114.777 311.51C114.692 311.535 114.604 311.543 114.516 311.534L30.01 302.664C29.688 302.63 29.379 302.519 29.1091 302.341C28.8391 302.162 28.6162 301.921 28.4593 301.638C28.3024 301.355 28.2161 301.038 28.2077 300.714C28.1992 300.391 28.269 300.07 28.411 299.779L29.892 296.738C30.7318 295.013 31.9922 293.528 33.557 292.419C35.1218 291.309 36.9407 290.612 38.846 290.39L59.948 287.935C63.69 287.5 67.2661 286.145 70.357 283.991Z" fill="white" stroke="#01133B"/>
</mask>
<g mask="url(#mask3_41_13860)">
<path d="M79.653 276.637C80.929 279.673 83.767 281.453 88.066 282.099C98.772 283.707 107.141 283.08 113.161 280.155L116.076 296.899C116.645 300.169 116.757 303.502 116.41 306.803L115.967 311.011C115.927 311.393 115.736 311.722 115.459 311.946C115.317 312.061 115.155 312.147 114.98 312.199C114.805 312.251 114.621 312.267 114.44 312.248L29.935 303.379C29.5782 303.342 29.2321 303.235 28.9169 303.064C28.6016 302.893 28.3233 302.661 28.098 302.382C27.7701 301.978 27.5645 301.489 27.5057 300.973C27.4469 300.456 27.5372 299.933 27.766 299.466L29.247 296.425C30.1395 294.592 31.479 293.013 33.1422 291.833C34.8055 290.654 36.7388 289.913 38.764 289.677L59.865 287.222C63.4897 286.801 66.9535 285.488 69.947 283.401L79.653 276.637Z" stroke="#01133B" stroke-width="1.436"/>
<path d="M89.335 276.025L90.95 292.359L105.082 304.823" stroke="#01133B" stroke-width="6.71" stroke-linejoin="round"/>
</g>
<path d="M63.9819 284.612L67.2819 290.853M70.2629 281.343L73.6989 286.288" stroke="#01133B" stroke-width="1.436" stroke-linecap="round" stroke-linejoin="round"/>
<path d="M163.5 207.5L159.5 209.5L215.5 224L219.5 222L163.5 207.5Z" fill="#8CB0FF"/>
</g>
<path d="M295 214V197L298.5 195V215L256 239V235.5L295 214Z" fill="#8CB0FF"/>
<defs>
<linearGradient id="paint0_linear_41_13860" x1="191.699" y1="121.812" x2="191.699" y2="335.715" gradientUnits="userSpaceOnUse">
<stop stop-color="#1A47BB"/>
<stop offset="1" stop-color="#000207"/>
</linearGradient>
</defs>
</svg>
