<svg width="1024" height="1024" viewBox="0 0 1024 1024" fill="none" xmlns="http://www.w3.org/2000/svg">
<rect width="1024" height="1024" fill="url(#paint0_linear_39156_596)"/>
<path d="M513.889 670.517C425.351 670.517 353.548 599.432 353.548 511.785C353.548 424.137 425.351 353.053 513.889 353.053C550.785 352.926 586.625 365.585 615.514 388.949L488.584 528.465L672.725 489.74L813.262 459.797C800.903 390.613 764.881 328.116 711.579 283.383C656.06 236.404 586.086 210.784 513.889 211.001C345.963 211.001 210 345.685 210 511.608C210 677.531 346.078 812.214 513.889 812.214C567.838 812.559 620.913 798.34 667.705 771.005C714.497 743.669 753.333 704.196 780.255 656.606L701.62 622.361C687.898 616.124 672.757 613.842 657.849 615.765C642.94 617.688 628.837 623.741 617.077 633.265C587.948 657.455 551.482 670.62 513.889 670.517Z" fill="#FBFBFB"/>
<defs>
<linearGradient id="paint0_linear_39156_596" x1="512" y1="-304" x2="512" y2="1138" gradientUnits="userSpaceOnUse">
<stop stop-color="#1B1C1E"/>
<stop offset="1" stop-color="#BEBEBE"/>
</linearGradient>
</defs>
</svg>
