<svg width="48" height="48" viewBox="0 0 48 48" fill="none" xmlns="http://www.w3.org/2000/svg">
<path d="M24.0898 30.3434C20.5675 30.3434 17.7109 27.5057 17.7109 24.007C17.7109 20.5082 20.5675 17.6706 24.0898 17.6706C25.4045 17.666 26.6854 18.0709 27.7641 18.8255C27.9697 18.9693 27.9911 19.2598 27.8226 19.4456L23.99 23.6727C23.7052 23.9867 23.9893 24.4816 24.4041 24.3941L30.4089 23.127L35.5869 22.02C35.8173 21.9707 35.9681 21.7475 35.9187 21.5172C35.3625 18.9208 33.9686 16.5853 31.9547 14.8894C29.7459 13.0141 26.9621 11.9914 24.0898 12.0001C17.4091 12.0001 12 17.3765 12 23.9999C12 30.6234 17.4137 35.9998 24.0898 35.9998C26.2361 36.0135 28.3477 35.4459 30.2092 34.3547C31.9328 33.3444 33.3851 31.9186 34.4411 30.2049C34.5769 29.9845 34.4807 29.698 34.2434 29.5943L31.5585 28.421C31.0126 28.172 30.4102 28.081 29.8171 28.1577C29.224 28.2345 28.6629 28.4761 28.195 28.8563C27.0362 29.822 25.5854 30.3475 24.0898 30.3434Z" fill="#3162E1"/>
</svg>
